# xmcd
#
# Track frame offsets: 
#        150
#        15879
#        30094
#        90798
#        121520
#        146104
#        162565
#        181540
#        206774
#        229145
#        242709
#        257091
#        271545
#        306065
#
# Disc length: 4476 seconds
#
# Revision: 2
# Processed by: cddbd v1.5.2PL0 Copyright (c) Steve Scherf et al.
# Submitted via: ExactAudioCopyFreeDBPlugin 1.0
#
DISCID=9c117a0e
DTITLE=Various Artist - JazzPiano History CD15 - West Coast
DYEAR=1900
DGENRE=Jazz
TTITLE0=Horace Silver Trio - Opus De Funk
TTITLE1=Horace Silver Trio - Buhaina
TTITLE2=Horace Silver Trio and Miles Davis All Star Sextet - Walkin'
TTITLE3=Horace Silver Quintet - Doodlin'
TTITLE4=Horace Silver and Nat Adderley Quintet - Blues For Bohemia
TTITLE5=Wynton Kelly and J. J. Johnson Quintet - Too Marvelous For Words
TTITLE6=Wynton Kelly and Art Farmer Quartet - Gone With The Wind
TTITLE7=Richie Powell, Clifford Brown, Max Roach - George's Dilemma
TTITLE8=Richie Powell, Clifford Brown, Max Roach - Sandu
TTITLE9=Thelonious Monk Quintet - Straight No Chaser
TTITLE10=Thelonious Monk Sextet - Hornin' In
TTITLE11=Thelonious Monk Trio - Bemsha Swing
TTITLE12=Thelonious Monk Trio - Blue Monk
TTITLE13=Ray Bryant and Miles Davis Sextet - Bitty Ditty Ray Bryant
EXTD=
EXTT0=
EXTT1=
EXTT2=
EXTT3=
EXTT4=
EXTT5=
EXTT6=
EXTT7=
EXTT8=
EXTT9=
EXTT10=
EXTT11=
EXTT12=
EXTT13=
PLAYORDER=
